<svg width="174" height="78" viewBox="0 0 174 78" fill="none" xmlns="http://www.w3.org/2000/svg">
<path d="M36.2827 39.4682L22.4708 44.9199C22.4708 44.9199 21.3843 43.3369 20.4766 42.5269C19.5096 41.664 17.6848 40.7322 17.6848 40.7322C17.6848 37.3421 18.4816 34.2786 20.4766 30.7614C22.1162 27.871 24.47 25.5163 26.1156 24.2868C27.2605 26.2585 28.4743 27.4294 29.8374 28.4557C30.3869 28.8694 30.9625 29.2609 31.5642 29.6701C31.754 29.7993 31.9464 29.9301 32.1414 30.064C32.9568 30.6239 33.8248 31.2413 34.7609 32.0165C35.8199 32.8935 36.6525 33.6279 37.4231 34.3692C37.4082 35.1386 37.3384 36.7736 37.0193 37.5529C36.559 38.6776 36.2827 39.4682 36.2827 39.4682Z" fill="#16C995"/>
<path d="M40.3239 36.849C38.5286 34.8245 37.2862 33.59 35.0153 31.7093C34.0658 30.923 33.1867 30.2979 32.3672 29.7352C32.1688 29.599 31.9743 29.4667 31.7834 29.3369L31.7827 29.3364C31.1831 28.9285 30.6184 28.5445 30.0773 28.1371C28.7411 27.131 27.5598 25.9906 26.4401 24.0512C27.9436 22.9835 29.1392 22.4227 30.211 21.92C31.6274 21.2557 32.8276 20.6928 34.2364 19.1952C36.4603 16.8312 38.4241 12.0163 38.4241 12.0163C38.4241 12.0163 53.1686 22.9422 57.6363 30.8914L41.0165 37.5415L40.3239 36.849Z" fill="#16C995"/>
<path d="M46.4007 61.4715C44.5776 62.1018 44.606 61.6709 44.606 61.6709C44.606 61.6709 44.7655 59.5949 44.8054 57.2837C44.8263 56.075 44.7984 55.2071 44.0078 54.2925C43.1511 53.3016 42.1809 53.0033 40.8744 53.096C39.4963 53.1938 39.0916 53.616 38.4241 54.4919C37.9521 55.1113 37.7012 56.3504 37.7012 56.3504C37.7012 56.3504 37.3276 58.0773 36.8288 59.0785C36.1128 60.5155 34.9536 62.4335 34.2364 62.2692C31.8943 61.7324 29.46 60.6915 26.858 58.8791C24.958 57.5557 22.4708 54.8908 22.4708 54.8908C22.4708 54.8908 23.4514 52.763 23.6673 51.3013C23.9066 49.6816 23.4679 47.1135 23.4679 47.1135L35.4263 42.1575C35.4263 42.1575 35.0752 43.9952 35.5041 45.0337C36.3661 47.1212 38.7392 47.9151 40.8744 47.1794C43.1918 46.3808 44.4003 44.9172 43.6089 41.5299C43.3016 40.2142 42.4711 39.3363 42.4711 39.3363L58.6253 32.8897C59.7415 35.4785 60.3599 38.3323 60.3599 41.3304C60.3599 47.0314 57.63 53.4174 53.3803 57.2837C51.5584 58.9413 48.6356 60.6988 46.4007 61.4715Z" fill="#16C995"/>
<path d="M36.2827 39.4682L22.4708 44.9199C22.4708 44.9199 21.3843 43.3369 20.4766 42.5269C19.5096 41.664 17.6848 40.7322 17.6848 40.7322C17.6848 37.3421 18.4816 34.2786 20.4766 30.7614C22.1162 27.871 24.47 25.5163 26.1156 24.2868C27.2605 26.2585 28.4743 27.4294 29.8374 28.4557C30.3869 28.8694 30.9625 29.2609 31.5642 29.6701C31.754 29.7993 31.9464 29.9301 32.1414 30.064C32.9568 30.6239 33.8248 31.2413 34.7609 32.0165C35.8199 32.8935 36.6525 33.6279 37.4231 34.3692C37.4082 35.1386 37.3384 36.7736 37.0193 37.5529C36.559 38.6776 36.2827 39.4682 36.2827 39.4682Z" fill="#16C995"/>
<path d="M40.3239 36.849C38.5286 34.8245 37.2862 33.59 35.0153 31.7093C34.0658 30.923 33.1867 30.2979 32.3672 29.7352C32.1688 29.599 31.9743 29.4667 31.7834 29.3369L31.7827 29.3364C31.1831 28.9285 30.6184 28.5445 30.0773 28.1371C28.7411 27.131 27.5598 25.9906 26.4401 24.0512C27.9436 22.9835 29.1392 22.4227 30.211 21.92C31.6274 21.2557 32.8276 20.6928 34.2364 19.1952C36.4603 16.8312 38.4241 12.0163 38.4241 12.0163C38.4241 12.0163 53.1686 22.9422 57.6363 30.8914L41.0165 37.5415L40.3239 36.849Z" fill="#16C995"/>
<path d="M46.4007 61.4715C44.5776 62.1018 44.606 61.6709 44.606 61.6709C44.606 61.6709 44.7655 59.5949 44.8054 57.2837C44.8263 56.075 44.7984 55.2071 44.0078 54.2925C43.1511 53.3016 42.1809 53.0033 40.8744 53.096C39.4963 53.1938 39.0916 53.616 38.4241 54.4919C37.9521 55.1113 37.7012 56.3504 37.7012 56.3504C37.7012 56.3504 37.3276 58.0773 36.8288 59.0785C36.1128 60.5155 34.9536 62.4335 34.2364 62.2692C31.8943 61.7324 29.46 60.6915 26.858 58.8791C24.958 57.5557 22.4708 54.8908 22.4708 54.8908C22.4708 54.8908 23.4514 52.763 23.6673 51.3013C23.9066 49.6816 23.4679 47.1135 23.4679 47.1135L35.4263 42.1575C35.4263 42.1575 35.0752 43.9952 35.5041 45.0337C36.3661 47.1212 38.7392 47.9151 40.8744 47.1794C43.1918 46.3808 44.4003 44.9172 43.6089 41.5299C43.3016 40.2142 42.4711 39.3363 42.4711 39.3363L58.6253 32.8897C59.7415 35.4785 60.3599 38.3323 60.3599 41.3304C60.3599 47.0314 57.63 53.4174 53.3803 57.2837C51.5584 58.9413 48.6356 60.6988 46.4007 61.4715Z" fill="#16C995"/>
<path fill-rule="evenodd" clip-rule="evenodd" d="M34.9341 31.9371C37.2312 33.8394 38.488 35.0882 40.3041 37.1361L41.0047 37.8367L57.8167 31.1097C53.2973 23.0685 38.3823 12.0163 38.3823 12.0163C38.3823 12.0163 36.3958 16.8869 34.1462 19.2783C32.7211 20.7931 31.5071 21.3625 30.0743 22.0345C28.9901 22.543 27.7807 23.1103 26.2597 24.1904C27.3924 26.1522 28.5873 27.3058 29.939 28.3235C30.4864 28.7356 31.0576 29.1241 31.6641 29.5367L31.6648 29.5371L31.6652 29.5374C31.8582 29.6687 32.0548 29.8024 32.2554 29.9401C33.0843 30.5093 33.9736 31.1417 34.9341 31.9371ZM21.2743 53.096C21.2743 53.096 19.3905 50.314 18.6819 48.31C17.9434 46.2217 17.6848 42.7264 17.6848 42.7264C17.6848 42.7264 21.0518 45.4333 21.6731 47.9112C22.1671 49.881 21.2743 53.096 21.2743 53.096Z" fill="url(#paint0_radial)"/>
<path d="M77.8291 44.4141H72.0195L70.7012 48H69.5674L74.4102 35.2031H75.4385L80.2812 48H79.1562L77.8291 44.4141ZM72.3535 43.4912H77.4863L74.9199 36.5215L72.3535 43.4912ZM82.1709 48V35.2031H85.748C86.7969 35.2031 87.7373 35.4434 88.5693 35.9238C89.4014 36.3984 90.0488 37.0811 90.5117 37.9717C90.9805 38.8623 91.2148 39.876 91.2148 41.0127V42.1904C91.2148 43.333 90.9834 44.3467 90.5205 45.2314C90.0576 46.1162 89.4043 46.7988 88.5605 47.2793C87.7227 47.7598 86.7588 48 85.6689 48H82.1709ZM83.252 36.126V47.0859H85.6777C87.0254 47.0859 88.1064 46.6406 88.9209 45.75C89.7354 44.8535 90.1426 43.6436 90.1426 42.1201V40.9951C90.1426 39.5244 89.7412 38.3467 88.9385 37.4619C88.1357 36.5771 87.0781 36.1318 85.7656 36.126H83.252ZM100.681 44.4141H94.8711L93.5527 48H92.4189L97.2617 35.2031H98.29L103.133 48H102.008L100.681 44.4141ZM95.2051 43.4912H100.338L97.7715 36.5215L95.2051 43.4912ZM105.506 47.0859H113.407V48H104.196V47.1826L111.79 36.126H104.425V35.2031H113.126V35.9766L105.506 47.0859ZM125.026 42.2959C125.026 43.4736 124.821 44.5078 124.411 45.3984C124.007 46.2891 123.427 46.9746 122.671 47.4551C121.915 47.9355 121.042 48.1758 120.052 48.1758C118.558 48.1758 117.351 47.6426 116.431 46.5762C115.511 45.5039 115.051 44.0596 115.051 42.2432V40.9248C115.051 39.7588 115.256 38.7275 115.666 37.8311C116.082 36.9287 116.668 36.2373 117.424 35.7568C118.18 35.2705 119.05 35.0273 120.034 35.0273C121.019 35.0273 121.886 35.2646 122.636 35.7393C123.392 36.2139 123.975 36.8848 124.385 37.752C124.795 38.6191 125.009 39.624 125.026 40.7666V42.2959ZM123.945 40.9072C123.945 39.3662 123.597 38.1592 122.899 37.2861C122.202 36.4131 121.247 35.9766 120.034 35.9766C118.845 35.9766 117.896 36.416 117.187 37.2949C116.483 38.168 116.132 39.3896 116.132 40.96V42.2959C116.132 43.8135 116.483 45.0176 117.187 45.9082C117.89 46.793 118.845 47.2354 120.052 47.2354C121.276 47.2354 122.231 46.7988 122.917 45.9258C123.603 45.0469 123.945 43.8252 123.945 42.2607V40.9072ZM128.841 47.0859H135.16V48H127.751V35.2031H128.841V47.0859Z" fill="#16C995"/>
<path d="M147.184 48H144.547V42.5156H139.405V48H136.769V35.2031H139.405V40.3887H144.547V35.2031H147.184V48ZM159.181 35.2031V43.6318C159.181 45.0322 158.741 46.1396 157.862 46.9541C156.989 47.7686 155.794 48.1758 154.276 48.1758C152.782 48.1758 151.596 47.7803 150.717 46.9893C149.838 46.1982 149.39 45.1113 149.372 43.7285V35.2031H152.009V43.6494C152.009 44.4873 152.208 45.0996 152.606 45.4863C153.011 45.8672 153.567 46.0576 154.276 46.0576C155.759 46.0576 156.512 45.2783 156.535 43.7197V35.2031H159.181ZM161.343 48V35.2031H165.825C167.378 35.2031 168.556 35.502 169.358 36.0996C170.161 36.6914 170.562 37.5615 170.562 38.71C170.562 39.3369 170.401 39.8906 170.079 40.3711C169.757 40.8457 169.309 41.1943 168.734 41.417C169.391 41.5811 169.906 41.9121 170.281 42.4102C170.662 42.9082 170.853 43.5176 170.853 44.2383C170.853 45.4688 170.46 46.4004 169.675 47.0332C168.89 47.666 167.771 47.9883 166.317 48H161.343ZM163.979 42.4277V45.8818H166.238C166.859 45.8818 167.343 45.7354 167.688 45.4424C168.04 45.1436 168.216 44.7334 168.216 44.2119C168.216 43.04 167.609 42.4453 166.396 42.4277H163.979ZM163.979 40.5645H165.931C167.261 40.541 167.926 40.0107 167.926 38.9736C167.926 38.3936 167.756 37.9775 167.416 37.7256C167.082 37.4678 166.552 37.3389 165.825 37.3389H163.979V40.5645Z" fill="white"/>
<defs>
<radialGradient id="paint0_radial" cx="0" cy="0" r="1" gradientUnits="userSpaceOnUse" gradientTransform="translate(38.0253 33.1544) rotate(-69.1455) scale(17.9253 21.9078)">
<stop offset="0.564605" stop-color="#16C995"/>
<stop offset="1" stop-color="#489B83"/>
</radialGradient>
</defs>
</svg>
