<svg width="22" height="23" viewBox="0 0 22 23" fill="none" xmlns="http://www.w3.org/2000/svg">
<g clip-path="url(#clip0)">
<path d="M16.5 8.25C16.5 6.79131 15.9205 5.39236 14.8891 4.36091C13.8576 3.32946 12.4587 2.75 11 2.75C9.54131 2.75 8.14236 3.32946 7.11091 4.36091C6.07946 5.39236 5.5 6.79131 5.5 8.25C5.5 14.6667 2.75 16.5 2.75 16.5H19.25C19.25 16.5 16.5 14.6667 16.5 8.25Z" stroke="white" stroke-width="2" stroke-linecap="round" stroke-linejoin="round"/>
<path d="M12.5858 20.1667C12.4247 20.4445 12.1933 20.6751 11.915 20.8354C11.6367 20.9957 11.3212 21.0801 11 21.0801C10.6788 21.0801 10.3633 20.9957 10.0849 20.8354C9.80663 20.6751 9.57531 20.4445 9.41415 20.1667" stroke="white" stroke-width="2" stroke-linecap="round" stroke-linejoin="round"/>
</g>
<circle cx="17" cy="4" r="4" fill="#F48484"/>
<path d="M18.4824 6H15.6143V5.51074L17.0352 3.96094C17.2402 3.73242 17.3857 3.54199 17.4717 3.38965C17.5596 3.23535 17.6035 3.08105 17.6035 2.92676C17.6035 2.72363 17.5459 2.55957 17.4307 2.43457C17.3174 2.30957 17.1641 2.24707 16.9707 2.24707C16.7402 2.24707 16.5615 2.31738 16.4346 2.45801C16.3076 2.59863 16.2441 2.79102 16.2441 3.03516H15.5322C15.5322 2.77539 15.5908 2.54199 15.708 2.33496C15.8271 2.12598 15.9961 1.96387 16.2148 1.84863C16.4355 1.7334 16.6895 1.67578 16.9766 1.67578C17.3906 1.67578 17.7168 1.78027 17.9551 1.98926C18.1953 2.19629 18.3154 2.4834 18.3154 2.85059C18.3154 3.06348 18.2549 3.28711 18.1338 3.52148C18.0146 3.75391 17.8184 4.01855 17.5449 4.31543L16.502 5.43164H18.4824V6Z" fill="#F3F3F6"/>
<defs>
<clipPath id="clip0">
<rect width="22" height="22" fill="white" transform="translate(0 0.916656)"/>
</clipPath>
</defs>
</svg>
